# xmcd
#
# Track frame offsets:
#	150
#	5106
#	22703
#	63030
#	93757
#	125356
#	166461
#
# Disc length: 2750 seconds
#
# Revision: 1
# Processed by: cddbd v1.5.2PL0 Copyright (c) Steve Scherf et al.
# Submitted via: audiograbber 1.83.01
#
DISCID=460abc07
DTITLE=Grateful Dead - 80-08-31 Capital Centre, Landover MD
DYEAR=1900
DGENRE=
TTITLE0=Tuning
TTITLE1=Greatest Story Ever Told
TTITLE2=Uncle John's Band
TTITLE3=Lost Sailor
TTITLE4=Saint Of Circumstance
TTITLE5=Comes A Time
TTITLE6=Truckin'
EXTD=
EXTT0=
EXTT1=
EXTT2=
EXTT3=
EXTT4=
EXTT5=
EXTT6=
PLAYORDER=
